<svg xmlns="http://www.w3.org/2000/svg" width="293.406" height="71.031" viewBox="0 0 293.406 71.031">
  <defs>
    <style>
      .cls-1 {
        fill: #9aa5a9;
        fill-rule: evenodd;
      }
    </style>
  </defs>
  <path id="logo" class="cls-1" d="M153.881,91.285c-0.191.848,0.016,1.708-.179,2.516a40.322,40.322,0,0,1-1.8,6.53c-3.249,7.495-8.476,12.022-16.105,15.155a34.949,34.949,0,0,1-4.969,1.2c-0.816.2-1.714,0.057-2.515,0.239a13.73,13.73,0,0,1-3.532-.12c-0.958-.217-1.8-0.068-2.694-0.3a38.286,38.286,0,0,1-5.688-1.8,26.874,26.874,0,0,1-13.889-13.419,40.371,40.371,0,0,1-1.377-3.894c-0.4-1.231-.571-2.683-0.9-4.073q-0.059-1.018-.119-2.037a10.143,10.143,0,0,1,.06-3.534q0.059-.809.119-1.617a35.11,35.11,0,0,1,1.2-4.972c3.135-7.636,7.652-12.861,15.147-16.114a37.714,37.714,0,0,1,5.807-1.677l2.335-.3a3.852,3.852,0,0,0,.9-0.06,26.492,26.492,0,0,1,16.644,4.852,26.785,26.785,0,0,1,9.579,11.921,37.25,37.25,0,0,1,1.437,4.373q0.239,1.467.479,2.935v0.659A10.137,10.137,0,0,1,153.881,91.285Zm-24.489,18.3c0.272,0.378.794,1.461,1.256,1.555a5.489,5.489,0,0,1,1.256-.239,14.09,14.09,0,0,0,2.033-.658,8.514,8.514,0,0,0-1.256-.777c-0.633-.443-1.231-0.966-1.854-1.435q-0.328-.36-0.658-0.718a2.183,2.183,0,0,1-.478-0.359c-0.639-.845-1.422-1.579-2.033-2.452a11.176,11.176,0,0,0-1.017-1.614A15.008,15.008,0,0,0,129.392,109.59ZM127,96a6,6,0,1,0-6-6A6,6,0,0,0,127,96Zm-7.176,14.188a5.147,5.147,0,0,1,1.076.359l2.333,0.538v-0.059a4.629,4.629,0,0,1-.6-1.137,25.587,25.587,0,0,1-1.854-5.621q-0.12-1.105-.239-2.212a4.367,4.367,0,0,0-.06-1.017,14.574,14.574,0,0,1-.658,2.093A15.6,15.6,0,0,0,119.824,110.188Zm-8.013-5.262,1.614,1.435v-0.837q0.15-1.256.3-2.512a27.013,27.013,0,0,1,1.436-4.6,17.021,17.021,0,0,0,.9-2.033l-1.615,1.435c-1.32,1.742-2.934,3.66-3.528,6.1A4.229,4.229,0,0,1,111.811,104.926Zm-5.143-9.508a14.086,14.086,0,0,0,.658,2.033,14.6,14.6,0,0,0,1.256-1.914,18.376,18.376,0,0,1,4.245-4.126,7.122,7.122,0,0,1,1.794-1.2v-0.06H114.5a3.442,3.442,0,0,1-.778.12c-0.569.153-1.232,0.27-1.794,0.478a16.518,16.518,0,0,0-4.006,2.153c-0.372.268-1.4,0.794-1.5,1.256A5.493,5.493,0,0,1,106.668,95.418Zm2.87-12.5a15.914,15.914,0,0,1-2.152.3c-0.261,1.113-.689,2.254-0.957,3.468h0.06a4.607,4.607,0,0,1,1.136-.6,25.6,25.6,0,0,1,5.621-1.854L115.459,84a4.353,4.353,0,0,0,1.016-.06,13.523,13.523,0,0,1-2.093-.658,14.9,14.9,0,0,0-3.767-.419A4.672,4.672,0,0,1,109.538,82.92Zm9.748-5.322a16.739,16.739,0,0,0-5.681-3.169c-0.534.8-2.121,1.591-2.452,2.512h0.777a5.848,5.848,0,0,0,1.376.12l2.093,0.359a29.2,29.2,0,0,1,3.707,1.2l2.034,1.016v-0.06C120.421,79.073,119.988,78.129,119.286,77.6Zm6.1-5.143c-0.559-.888-1.307-1.673-1.853-2.571h-0.18a5.457,5.457,0,0,1-1.256.239,14.114,14.114,0,0,0-2.033.658,19.733,19.733,0,0,0,2.153,1.435,17.5,17.5,0,0,1,3.947,4.186,6.976,6.976,0,0,1,1.136,1.734h0.06A15.156,15.156,0,0,0,125.385,72.455Zm8.791-1.614a5.112,5.112,0,0,1-1.076-.359l-2.333-.538,0.957,1.794A28.663,28.663,0,0,1,133.04,75.8c0.271,1,.18,2.112.418,3.169a4.365,4.365,0,0,0,.06,1.017,14.591,14.591,0,0,1,.658-2.093A15.6,15.6,0,0,0,134.176,70.84ZM132.86,101.4a15.153,15.153,0,0,0,7.535,5.2c0.534-.795,2.121-1.591,2.452-2.511H141.83a5.688,5.688,0,0,0-1.315-.12L138,103.491a31.271,31.271,0,0,1-3.408-1.2C134.022,102.044,133.471,101.6,132.86,101.4Zm4.665-4.306a7.872,7.872,0,0,1,1.435.478l2.332,0.478c1.738,0.4,3.713-.131,5.322-0.239,0.2-.821.463-1.664,0.718-2.572a1.905,1.905,0,0,0,.179-0.9,4.611,4.611,0,0,1-1.136.6,25.6,25.6,0,0,1-5.621,1.854l-2.213.239A4.352,4.352,0,0,0,137.525,97.092Zm3.05-22.425A19.324,19.324,0,0,1,139.08,82.2q-0.6,1.226-1.2,2.452h0.059c0.5-.718,1.442-1.151,1.974-1.854a16.714,16.714,0,0,0,3.169-5.681C142.291,76.585,141.5,75,140.575,74.667Zm6.039,8.91a7.9,7.9,0,0,1-1.375,2.033,17.171,17.171,0,0,1-4.186,4.066,6.935,6.935,0,0,1-1.734,1.136v0.06h0.119a3.288,3.288,0,0,1,.778-0.12c0.529-.136,1.146-0.226,1.674-0.419a16.577,16.577,0,0,0,4.186-2.213,4.124,4.124,0,0,0,1.5-1.315C147.134,86.084,147.239,84.079,146.614,83.577ZM127,88a2,2,0,1,1-2,2A2,2,0,0,1,127,88Zm43.03-22.023a1,1,0,0,0,1.08,1.188h1.907a0.928,0.928,0,0,1,1.08,1.08v18a0.928,0.928,0,0,1-1.08,1.08H171.11a1,1,0,0,0-1.08,1.188,1.075,1.075,0,0,0,1.08,1.332H180a1.032,1.032,0,0,0,1.08-1.224,1.046,1.046,0,0,0-1.08-1.3h-1.943a0.928,0.928,0,0,1-1.08-1.08v-18a0.928,0.928,0,0,1,1.08-1.08H180a1,1,0,0,0,1.08-1.188A1.075,1.075,0,0,0,180,64.645h-8.89A1.075,1.075,0,0,0,170.03,65.977Zm22.2,5.867a0.928,0.928,0,0,0-1.08,1.08v0.288a0.928,0.928,0,0,0,1.08,1.08h1.98c0.252,0,.36.072,0.36,0.144a0.3,0.3,0,0,1-.18.18,2.106,2.106,0,0,0-1.044,1.872V88.762a0.928,0.928,0,0,0,1.08,1.08h0.648a0.928,0.928,0,0,0,1.08-1.08V76.848a2.15,2.15,0,0,1,2.195-2.2h2.52a2.151,2.151,0,0,1,2.2,2.2V88.762a0.928,0.928,0,0,0,1.08,1.08h0.648a0.927,0.927,0,0,0,1.079-1.08V76.848s0-5-5-5h-8.639Zm30.013,18.142c2.159,0,3.887-1.044,4.391-2.124a0.3,0.3,0,0,1,.18-0.18c0.072,0,.144.108,0.144,0.36v0.72a0.928,0.928,0,0,0,1.08,1.08h0.648a0.928,0.928,0,0,0,1.08-1.08V65.005a0.928,0.928,0,0,0-1.08-1.08h-0.648a0.928,0.928,0,0,0-1.08,1.08v8.639c0,0.252-.072.36-0.144,0.36a0.3,0.3,0,0,1-.18-0.18c-0.5-1.08-2.232-2.124-4.391-2.124-5,0-5,5-5,5v8.279S217.24,89.986,222.244,89.986Zm1.08-15.478a3.345,3.345,0,0,1,3.635,3.276V83.9a3.345,3.345,0,0,1-3.635,3.275c-3.276,0-3.276-2.2-3.276-2.2V76.7S220.048,74.508,223.324,74.508Zm18.292,10.331s0,5,5,5h7.919a0.928,0.928,0,0,0,1.08-1.08v-0.18a0.928,0.928,0,0,0-1.08-1.08h-1.98c-0.252,0-.36-0.072-0.36-0.144a0.3,0.3,0,0,1,.18-0.18c1.08-.5,1.764-1.548,1.764-3.383V72.888a0.928,0.928,0,0,0-1.08-1.08h-0.648a0.927,0.927,0,0,0-1.079,1.08V84.983a2.057,2.057,0,0,1-2.2,2.052h-2.52a2.151,2.151,0,0,1-2.2-2.2l0.036-11.95a0.927,0.927,0,0,0-1.079-1.08h-0.648a0.928,0.928,0,0,0-1.08,1.08Zm24.732-.288c0,3.707,3.167,5.435,5.975,5.435,2.664,0,5.579-1.764,5.579-4.787,0-5.867-8.135-5.579-8.135-8.639a2.181,2.181,0,0,1,2.34-2.232c1.332,0,2.484,1.008,2.484,1.872v0.36a0.929,0.929,0,0,0,1.08,1.044h0.576a0.965,0.965,0,0,0,1.079-1.116v-0.18c0-2.988-2.3-4.715-5.111-4.715-3.024,0-5.435,1.908-5.435,5.147,0,5.075,8.351,4.967,8.351,8.459,0,1.44-1.656,2.088-2.916,2.088-1.332,0-3.132-1.044-3.132-2.628V84.3A0.929,0.929,0,0,0,268,83.255h-0.576a0.966,0.966,0,0,0-1.08,1.116v0.18Zm23.385-11.267a0.928,0.928,0,0,0,1.08,1.08h1.044a0.928,0.928,0,0,1,1.08,1.08v9.575a4.783,4.783,0,0,0,5,4.823h1.476a0.928,0.928,0,0,0,1.08-1.08V88.114a0.928,0.928,0,0,0-1.08-1.08H297.94a2.123,2.123,0,0,1-2.195-2.088v-9.5a0.927,0.927,0,0,1,1.079-1.08h2.556a0.928,0.928,0,0,0,1.08-1.08v-0.54a0.928,0.928,0,0,0-1.08-1.08h-2.52a0.881,0.881,0,0,1-1.008-1.08V66.8a0.927,0.927,0,0,0-1.079-1.08h-0.72a0.952,0.952,0,0,0-1.116,1.08v3.78a0.928,0.928,0,0,1-1.08,1.08h-1.044a0.928,0.928,0,0,0-1.08,1.08v0.54ZM313.6,87.322a1,1,0,0,0-1.08,1.188,1.075,1.075,0,0,0,1.08,1.332h8.171a1.032,1.032,0,0,0,1.08-1.224,1.046,1.046,0,0,0-1.08-1.3h-2.195a0.928,0.928,0,0,1-1.08-1.08V77.783a3.255,3.255,0,0,1,3.527-3.276h1.836a0.928,0.928,0,0,0,1.08-1.08V72.78a0.928,0.928,0,0,0-1.08-1.08H323.1c-2.16,0-3.887,1.044-4.391,2.124a0.3,0.3,0,0,1-.18.18c-0.072,0-.144-0.108-0.144-0.36v-0.72a0.928,0.928,0,0,0-1.08-1.08h-0.648a0.928,0.928,0,0,0-1.08,1.08l0.036,13.318a0.928,0.928,0,0,1-1.08,1.08H313.6ZM337.48,73.176a1,1,0,0,0,1.08,1.188h1.908a0.927,0.927,0,0,1,1.079,1.08V88.762a0.928,0.928,0,0,0,1.08,1.08h0.72a0.928,0.928,0,0,0,1.08-1.08V72.924a0.928,0.928,0,0,0-1.08-1.08H338.56A1.075,1.075,0,0,0,337.48,73.176Zm2.232-7.235a2.734,2.734,0,0,0,2.735,2.736,2.766,2.766,0,0,0,2.772-2.736,2.8,2.8,0,0,0-2.772-2.772A2.765,2.765,0,0,0,339.712,65.941Zm23.072,24.045c2.16,0,3.887-1.044,4.391-2.124a0.3,0.3,0,0,1,.18-0.18c0.072,0,.144.108,0.144,0.36v0.72a0.928,0.928,0,0,0,1.08,1.08h0.648a0.928,0.928,0,0,0,1.08-1.08V72.924a0.928,0.928,0,0,0-1.08-1.08h-0.648a0.928,0.928,0,0,0-1.08,1.08v0.72c0,0.252-.072.36-0.144,0.36a0.3,0.3,0,0,1-.18-0.18c-0.5-1.08-2.231-2.124-4.391-2.124-5,0-5,5-5,5v8.279S357.781,89.986,362.784,89.986Zm1.08-15.478a3.345,3.345,0,0,1,3.635,3.276V83.9a3.345,3.345,0,0,1-3.635,3.275c-3.276,0-3.276-2.2-3.276-2.2V76.7S360.588,74.508,363.864,74.508Zm18.5-8.531a1,1,0,0,0,1.08,1.188h1.908a0.927,0.927,0,0,1,1.079,1.08v18a0.927,0.927,0,0,1-1.079,1.08h-1.908a1,1,0,0,0-1.08,1.188,1.075,1.075,0,0,0,1.08,1.332h8.891a1.031,1.031,0,0,0,1.079-1.224,1.045,1.045,0,0,0-1.079-1.3h-1.944a0.928,0.928,0,0,1-1.08-1.08V65.977a1.075,1.075,0,0,0-1.08-1.332h-4.787A1.075,1.075,0,0,0,382.365,65.977ZM170.03,101.645a0.833,0.833,0,0,0-.972.972V125.87a0.833,0.833,0,0,0,.972.972h5.651c3.06,0,7.307-1.26,7.307-7.523V109.168c0-6.263-4.247-7.523-7.307-7.523H170.03Zm10.258,18c0,2.591-1.4,4.535-4.859,4.535h-2.52a1.023,1.023,0,0,1-1.187-1.188V105.5a1.023,1.023,0,0,1,1.187-1.188h2.52c3.456,0,4.859,1.943,4.859,4.535v10.8Zm23.7-.252c2.268,0,3.24-.972,3.24-3.24v-2.3s0-5-5-5h-2.88c-5,0-5,5-5,5v7.991s0,5,5,5h6.083a0.928,0.928,0,0,0,1.08-1.08V125.15a0.928,0.928,0,0,0-1.08-1.08h-6.083a2.15,2.15,0,0,1-2.2-2.195v-1.4a0.928,0.928,0,0,1,1.08-1.08h5.759Zm-1.763-7.775a2.15,2.15,0,0,1,2.2,2.2v1.872a0.928,0.928,0,0,1-1.08,1.08h-5.111a0.928,0.928,0,0,1-1.08-1.08v-1.872a2.15,2.15,0,0,1,2.2-2.2h2.88Zm16.2,9.934c0,3.708,3.168,5.436,5.975,5.436,2.664,0,5.579-1.764,5.579-4.788,0-5.867-8.134-5.579-8.134-8.638a2.181,2.181,0,0,1,2.339-2.232c1.332,0,2.484,1.008,2.484,1.872v0.36a0.929,0.929,0,0,0,1.08,1.043h0.576a0.966,0.966,0,0,0,1.08-1.115v-0.18c0-2.988-2.3-4.716-5.112-4.716-3.023,0-5.435,1.908-5.435,5.148,0,5.075,8.351,4.967,8.351,8.458,0,1.44-1.656,2.088-2.916,2.088-1.332,0-3.131-1.044-3.131-2.627V121.3a0.929,0.929,0,0,0-1.08-1.044H219.5a0.966,0.966,0,0,0-1.08,1.116v0.179Zm23.76-11.374a1,1,0,0,0,1.08,1.188h1.907a0.928,0.928,0,0,1,1.08,1.08v13.318a0.928,0.928,0,0,0,1.08,1.08h0.72a0.928,0.928,0,0,0,1.08-1.08V109.924a0.928,0.928,0,0,0-1.08-1.08h-4.787A1.075,1.075,0,0,0,242.181,110.176Zm2.232-7.235a2.734,2.734,0,0,0,2.735,2.736,2.766,2.766,0,0,0,2.772-2.736,2.8,2.8,0,0,0-2.772-2.772A2.765,2.765,0,0,0,244.413,102.941Zm19.868,30.02a0.928,0.928,0,0,0,1.08,1.08H270a4.817,4.817,0,0,0,5-4.859l-0.036-15.694a2.106,2.106,0,0,0-1.044-1.872,0.3,0.3,0,0,1-.18-0.18c0-.072.108-0.144,0.36-0.144h1.98a0.928,0.928,0,0,0,1.08-1.08v-0.288a0.928,0.928,0,0,0-1.08-1.08h-8.6c-5,0-5,5-5,5v6.7s0,5,5,5c2.16,0,3.887-1.044,4.391-2.124a0.3,0.3,0,0,1,.18-0.18c0.072,0,.144.108,0.144,0.36v5.436a2.118,2.118,0,0,1-2.2,2.195h-4.643a0.928,0.928,0,0,0-1.08,1.08v0.648Zm4.284-10.223c-3.276,0-3.276-2.195-3.276-2.195v-6.7a2.15,2.15,0,0,1,2.2-2.195h2.483a2.181,2.181,0,0,1,2.2,2.195l0.036,5.616A3.345,3.345,0,0,1,268.565,122.738Zm19.581-13.894a0.928,0.928,0,0,0-1.08,1.08v0.288a0.928,0.928,0,0,0,1.08,1.08h1.98c0.252,0,.36.072,0.36,0.144a0.3,0.3,0,0,1-.18.18,2.106,2.106,0,0,0-1.044,1.872v12.274a0.928,0.928,0,0,0,1.08,1.08h0.647a0.928,0.928,0,0,0,1.08-1.08V113.847a2.15,2.15,0,0,1,2.2-2.195h2.52a2.15,2.15,0,0,1,2.2,2.195v11.915a0.927,0.927,0,0,0,1.079,1.08h0.648a0.928,0.928,0,0,0,1.08-1.08V113.847s0-5-5-5h-8.639Z" transform="translate(-100 -63)"/>
</svg>
